HIERARCHY
ROOT Hips
{
	OFFSET 56.512699 1.435904 96.823196
	CHANNELS 6 Xposition Yposition Zposition Xrotation Yrotation Zrotation
	JOINT spine
	{
		OFFSET 0.000000 -0.458068 7.965683
		CHANNELS 3 Xrotation Yrotation Zrotation
		JOINT spine1
		{
			OFFSET 0.000000 -0.000002 10.243103
			CHANNELS 3 Xrotation Yrotation Zrotation
			JOINT spine2
			{
				OFFSET 0.000000 -0.000002 9.814751
				CHANNELS 3 Xrotation Yrotation Zrotation
				JOINT Neck
				{
					OFFSET 0.000000 -1.201384 25.198601
					CHANNELS 3 Xrotation Yrotation Zrotation
					JOINT Head
					{
						OFFSET 0.000000 -0.000001 7.613144
						CHANNELS 3 Xrotation Yrotation Zrotation
						End Site
						{
							OFFSET 0.000000 6.077327 18.428101
						}
					}
				}
				JOINT RightShoulder
				{
					OFFSET -4.132702 0.575449 10.599205
					CHANNELS 3 Xrotation Yrotation Zrotation
					JOINT RightArm
					{
						OFFSET 0.000000 -0.000002 13.901794
						CHANNELS 3 Xrotation Yrotation Zrotation
						JOINT RightArmRoll
						{
							OFFSET 0.000000 -0.000001 7.017883
							CHANNELS 3 Xrotation Yrotation Zrotation
							JOINT RightForeArm
							{
								OFFSET 0.000000 -0.000003 20.440598
								CHANNELS 3 Xrotation Yrotation Zrotation
								JOINT RightForeArmRoll
								{
									OFFSET 0.000000 -0.000001 7.875153
									CHANNELS 3 Xrotation Yrotation Zrotation
									JOINT RightHand
									{
										OFFSET 0.000000 -0.000003 15.803696
										CHANNELS 3 Xrotation Yrotation Zrotation
										End Site
										{
											OFFSET 0.000000 0.000000 0.100006
										}
									}
								}
							}
						}
					}
				}
				JOINT LeftShoulder
				{
					OFFSET 4.132702 0.575449 10.599205
					CHANNELS 3 Xrotation Yrotation Zrotation
					JOINT LeftArm
					{
						OFFSET 0.000000 -0.000002 13.901794
						CHANNELS 3 Xrotation Yrotation Zrotation
						JOINT LeftArmRoll
						{
							OFFSET 0.000000 -0.000001 7.017883
							CHANNELS 3 Xrotation Yrotation Zrotation
							JOINT LeftForeArm
							{
								OFFSET 0.000000 -0.000003 20.440598
								CHANNELS 3 Xrotation Yrotation Zrotation
								JOINT LeftForeArmRoll
								{
									OFFSET 0.000000 -0.000001 7.875153
									CHANNELS 3 Xrotation Yrotation Zrotation
									JOINT LeftHand
									{
										OFFSET 0.000000 -0.000003 15.803696
										CHANNELS 3 Xrotation Yrotation Zrotation
										End Site
										{
											OFFSET 0.000000 0.000000 0.100006
										}
									}
								}
							}
						}
					}
				}
			}
		}
	}
	JOINT RightUpLeg
	{
		OFFSET -7.060482 1.086100 -1.294701
		CHANNELS 3 Xrotation Yrotation Zrotation
		JOINT RightUpLegRoll
		{
			OFFSET 0.000000 -0.000003 18.530800
			CHANNELS 3 Xrotation Yrotation Zrotation
			JOINT RightLeg
			{
				OFFSET 0.000000 0.000004 -22.947601
				CHANNELS 3 Xrotation Yrotation Zrotation
				JOINT RightLegRoll
				{
					OFFSET 0.000000 -0.000004 23.022598
					CHANNELS 3 Xrotation Yrotation Zrotation
					JOINT RightFoot
					{
						OFFSET 0.000000 -0.000003 19.162506
						CHANNELS 3 Xrotation Yrotation Zrotation
						JOINT RightToeBase
						{
							OFFSET 0.000000 -0.000003 16.018799
							CHANNELS 3 Xrotation Yrotation Zrotation
							End Site
							{
								OFFSET 0.006790 0.894206 7.757812
							}
						}
					}
				}
			}
		}
	}
	JOINT LeftUpLeg
	{
		OFFSET 7.060482 1.086100 -1.294701
		CHANNELS 3 Xrotation Yrotation Zrotation
		JOINT LeftUpLegRoll
		{
			OFFSET 0.000000 -0.000003 18.530899
			CHANNELS 3 Xrotation Yrotation Zrotation
			JOINT LeftLeg
			{
				OFFSET 0.000000 -0.000004 22.947502
				CHANNELS 3 Xrotation Yrotation Zrotation
				JOINT LeftLegRoll
				{
					OFFSET 0.000000 -0.000004 23.235504
					CHANNELS 3 Xrotation Yrotation Zrotation
					JOINT LeftFoot
					{
						OFFSET 0.000000 -0.000003 18.949600
						CHANNELS 3 Xrotation Yrotation Zrotation
						JOINT LeftToeBase
						{
							OFFSET 0.000000 -0.000003 16.018799
							CHANNELS 3 Xrotation Yrotation Zrotation
							End Site
							{
								OFFSET -0.030430 0.894205 7.757828
							}
						}
					}
				}
			}
		}
	}
}
MOTION
Frames: 13
Frame Time: 0.041667
55.838295 1.732720 96.726089 -5.520403 -1.366336 5.327259 -0.165965 0.078822 -0.259419 3.676597 0.173140 -0.501031 5.321653 0.166942 -0.502943 9.343047 11.595216 -3.037869 3.220605 -12.659720 -2.295946 -10.083013 -66.850552 -12.351154 -43.500829 -113.952957 -41.091846 0.000003 -0.000002 0.000000 20.849921 -10.897663 0.991261 0.000001 -0.000007 -2.999990 -5.000312 -7.998732 0.000186 -7.517217 64.339678 9.272989 -49.660741 118.769586 51.794103 -0.000001 -0.000000 0.000000 10.544238 13.019487 -0.607557 -0.000007 -0.000008 2.999990 -5.000192 7.998735 -0.000148 3.434049 -177.453574 4.004084 -179.999991 0.000005 -1.159993 173.995859 -3.067117 -0.529439 -0.000001 -0.000002 0.068690 68.921164 6.896407 2.130680 25.456953 -7.355614 0.000010 2.594455 177.755291 0.275363 -0.000005 -0.000004 -1.160380 -7.345498 1.447914 0.292495 -0.000003 0.000002 -0.103890 69.305260 -6.890902 -2.111145 25.456950 7.355613 -0.000001 
55.838898 1.739400 96.723686 -5.513583 -1.366920 5.322675 -0.167153 0.078822 -0.260013 3.673837 0.172153 -0.503535 5.318903 0.165937 -0.505444 9.330946 11.595608 -3.035777 3.197593 -12.655704 -2.297973 -10.090543 -66.867962 -12.360606 -43.517567 -113.951229 -41.032283 0.000003 -0.000003 0.000000 20.752196 -10.859629 0.975599 -0.000003 -0.000007 -2.999990 -5.000314 -7.998733 0.000186 -7.497774 64.333142 9.250201 -49.659744 118.782454 51.733786 -0.000002 -0.000000 0.000000 10.456810 12.973494 -0.592363 -0.000007 -0.000008 2.999990 -5.000189 7.998735 -0.000148 3.438382 -177.453574 4.003925 -179.999991 0.000005 -1.159993 174.017661 -3.068231 -0.528376 -0.000001 -0.000002 0.068381 68.910940 6.896449 2.131027 25.456953 -7.355614 0.000011 2.582194 177.755277 0.271797 -0.000005 -0.000004 -1.160380 -7.358786 1.452265 0.293103 -0.000002 0.000002 -0.104091 69.309358 -6.890817 -2.111174 25.456955 7.355611 0.000001 
55.839100 1.739348 96.723503 -5.506796 -1.367562 5.318318 -0.168290 0.078822 -0.260607 3.671166 0.171121 -0.506086 5.316223 0.164890 -0.507993 9.319645 11.596369 -3.033868 3.173117 -12.651801 -2.300259 -10.097688 -66.884286 -12.369558 -43.534058 -113.950682 -40.973550 0.000004 -0.000002 -0.000000 20.652411 -10.822126 0.960047 -0.000001 -0.000007 -2.999989 -5.000310 -7.998731 0.000186 -7.477468 64.326640 9.226451 -49.660164 118.796032 51.675323 -0.000003 0.000001 -0.000000 10.366880 12.928138 -0.577196 -0.000006 -0.000007 2.999990 -5.000189 7.998734 -0.000148 3.445617 -177.454598 4.004577 -179.999991 0.000005 -1.159993 174.044995 -3.071373 -0.527225 -0.000001 -0.000002 0.067921 68.897771 6.896492 2.131555 25.456952 -7.355614 0.000011 2.568447 177.754266 0.268398 -0.000005 -0.000004 -1.160380 -7.374927 1.456446 0.293816 -0.000003 0.000002 -0.104390 69.314918 -6.890695 -2.111207 25.456948 7.355612 0.000000 
55.833000 1.732979 96.724991 -5.500013 -1.368255 5.314094 -0.169401 0.078822 -0.261203 3.668536 0.170060 -0.508673 5.313602 0.163812 -0.510577 9.308907 11.597408 -3.032091 3.147637 -12.648104 -2.302708 -10.104559 -66.899825 -12.378163 -43.550116 -113.951256 -40.915063 0.000004 -0.000003 0.000000 20.551165 -10.785012 0.944629 0.000001 -0.000007 -2.999990 -5.000309 -7.998735 0.000185 -7.456682 64.320370 9.202132 -49.661629 118.810116 51.618164 -0.000001 -0.000001 0.000000 10.275262 12.883091 -0.562096 -0.000004 -0.000008 2.999990 -5.000191 7.998733 -0.000147 3.454874 -177.454626 4.005908 -179.999991 0.000005 -1.159993 174.076141 -3.076520 -0.527068 -0.000001 -0.000002 0.067355 68.882615 6.896591 2.132016 25.456952 -7.355615 0.000011 2.553644 177.754225 0.265194 -0.000004 -0.000004 -1.160380 -7.393056 1.460492 0.294604 -0.000003 0.000002 -0.104758 69.321427 -6.890548 -2.111175 25.456950 7.355613 0.000000 
55.838501 1.737523 96.725800 -5.493255 -1.368977 5.309968 -0.170490 0.078822 -0.261799 3.665946 0.168981 -0.511281 5.311002 0.162717 -0.513181 9.298478 11.598632 -3.030387 3.121569 -12.644417 -2.305258 -10.111322 -66.914953 -12.386616 -43.565194 -113.952759 -40.855927 0.000003 -0.000003 0.000000 20.449148 -10.748057 0.929336 -0.000001 -0.000008 -2.999991 -5.000319 -7.998731 0.000186 -7.435506 64.314011 9.177382 -49.663798 118.824569 51.561873 -0.000001 0.000001 -0.000000 10.182518 12.838228 -0.547056 -0.000007 -0.000008 2.999990 -5.000192 7.998734 -0.000148 3.465287 -177.454653 4.007581 -179.999991 0.000005 -1.159993 174.109527 -3.080673 -0.525685 -0.000001 -0.000002 0.066730 68.866284 6.896651 2.132646 25.456953 -7.355615 0.000011 2.538243 177.754198 0.262078 -0.000005 -0.000004 -1.160380 -7.412324 1.464474 0.295434 -0.000002 0.000002 -0.105166 69.328455 -6.890390 -2.111206 25.456957 7.355614 -0.000002 
55.840694 1.738851 96.725990 -5.486483 -1.369709 5.305851 -0.171574 0.078822 -0.262394 3.663366 0.167897 -0.513892 5.308422 0.161616 -0.515789 9.288127 11.599757 -3.028682 3.095353 -12.640722 -2.307837 -10.118057 -66.929987 -12.395035 -43.578881 -113.955054 -40.795371 0.000003 -0.000002 0.000000 20.346973 -10.711215 0.914210 -0.000003 -0.000007 -2.999990 -5.000309 -7.998733 0.000186 -7.414322 64.307754 9.152612 -49.666110 118.839076 51.505756 0.000000 -0.000001 -0.000000 10.089604 12.793509 -0.532176 -0.000007 -0.000008 2.999990 -5.000192 7.998734 -0.000147 3.475996 -177.455691 4.009285 -179.999991 0.000005 -1.159993 174.143418 -3.085834 -0.524373 -0.000001 -0.000002 0.066089 68.849652 6.896755 2.133303 25.456953 -7.355615 0.000011 2.522702 177.754184 0.258981 -0.000005 -0.000004 -1.160380 -7.431874 1.468435 0.296278 -0.000003 0.000002 -0.105583 69.335593 -6.890236 -2.111235 25.456950 7.355612 -0.000000 
55.832001 1.738231 96.724602 -5.479713 -1.370431 5.301705 -0.172671 0.078821 -0.262989 3.660766 0.166823 -0.516494 5.305822 0.160525 -0.518389 9.277623 11.600885 -3.026956 3.069430 -12.637026 -2.310358 -10.124816 -66.945116 -12.403495 -43.593583 -113.956413 -40.735760 0.000003 -0.000002 0.000000 20.245342 -10.674248 0.899243 -0.000005 -0.000007 -2.999990 -5.000312 -7.998733 0.000185 -7.393284 64.301477 9.128028 -49.668138 118.853447 51.449254 0.000002 -0.000000 -0.000000 9.997253 12.748514 -0.517453 -0.000007 -0.000008 2.999989 -5.000195 7.998734 -0.000148 3.486124 -177.455719 4.010885 -179.999991 0.000005 -1.159993 174.176217 -3.090988 -0.523113 -0.000001 -0.000002 0.065478 68.833547 6.896850 2.133825 25.456953 -7.355614 0.000010 2.507450 177.753160 0.255799 -0.000005 -0.000004 -1.160380 -7.450854 1.472437 0.297104 -0.000002 0.000002 -0.105979 69.342519 -6.890104 -2.111181 25.456952 7.355611 0.000000 
55.829800 1.731063 96.726395 -5.472935 -1.371114 5.297443 -0.173790 0.078822 -0.263585 3.658126 0.165772 -0.519071 5.303180 0.159457 -0.520964 9.266717 11.601829 -3.025137 3.044237 -12.633223 -2.312752 -10.131851 -66.960948 -12.412283 -43.609054 -113.956809 -40.676468 0.000002 -0.000002 0.000000 20.144649 -10.636947 0.884371 -0.000002 -0.000008 -2.999991 -5.000311 -7.998734 0.000186 -7.372646 64.295091 9.103887 -49.669156 118.867312 51.391563 -0.000000 0.000000 -0.000000 9.906220 12.703315 -0.502960 -0.000006 -0.000007 2.999990 -5.000192 7.998735 -0.000148 3.494800 -177.456729 4.011978 -179.999991 0.000005 -1.159993 174.206297 -3.095135 -0.521895 -0.000001 -0.000002 0.064943 68.818998 6.896892 2.134439 25.456953 -7.355615 0.000010 2.492949 177.753132 0.252555 -0.000005 -0.000004 -1.160380 -7.468414 1.476513 0.297880 -0.000002 0.000002 -0.106329 69.348816 -6.889944 -2.111160 25.456950 7.355612 -0.000000 
55.805000 1.735268 96.724091 -5.466130 -1.371746 5.293017 -0.174940 0.078822 -0.264179 3.655425 0.164754 -0.521610 5.300481 0.158424 -0.523499 9.255180 11.602593 -3.023191 3.020203 -12.629300 -2.314934 -10.139149 -66.977559 -12.421425 -43.626563 -113.955347 -40.618510 0.000004 -0.000002 0.000000 20.045695 -10.599164 0.869646 -0.000004 -0.000007 -2.999989 -5.000311 -7.998733 0.000186 -7.352670 64.288548 9.080495 -49.669037 118.880604 51.332372 -0.000002 -0.000000 -0.000000 9.817301 12.657686 -0.488723 -0.000009 -0.000008 2.999990 -5.000190 7.998734 -0.000148 3.501166 -177.456757 4.012431 -179.999991 0.000005 -1.159993 174.231951 -3.097273 -0.521708 -0.000001 -0.000002 0.064528 68.806684 6.896956 2.134820 25.456953 -7.355614 0.000011 2.479653 177.752108 0.249094 -0.000005 -0.000004 -1.160379 -7.483702 1.480744 0.298578 -0.000003 0.000002 -0.106598 69.353871 -6.889862 -2.111131 25.456952 7.355611 0.000000 
55.814301 1.730858 96.724396 -5.459299 -1.372310 5.288348 -0.176145 0.078822 -0.264774 3.652644 0.163787 -0.524095 5.297691 0.157440 -0.525982 9.242760 11.602894 -3.021037 2.997788 -12.625156 -2.316849 -10.146944 -66.995454 -12.431193 -43.643751 -113.952520 -40.559077 0.000004 -0.000002 0.000000 19.948974 -10.560683 0.855029 -0.000003 -0.000007 -2.999990 -5.000309 -7.998733 0.000185 -7.333624 64.281970 9.058159 -49.667169 118.893048 51.270979 0.000001 0.000001 0.000000 9.731265 12.611408 -0.474775 -0.000007 -0.000008 2.999990 -5.000190 7.998733 -0.000148 3.504335 -177.456770 4.011923 -179.999991 0.000005 -1.159993 174.251568 -3.098372 -0.520748 -0.000001 -0.000002 0.064279 68.797634 6.897005 2.135094 25.456957 -7.355615 0.000011 2.467992 177.752094 0.245443 -0.000005 -0.000004 -1.160380 -7.495861 1.485165 0.299164 -0.000003 0.000002 -0.106760 69.357436 -6.889784 -2.111194 25.456952 7.355613 -0.000001 
55.824699 1.728381 96.720291 -5.452439 -1.372774 5.283390 -0.177414 0.078822 -0.265366 3.649745 0.162880 -0.526511 5.294801 0.156516 -0.528395 9.229230 11.602735 -3.018642 2.977391 -12.620789 -2.318423 -10.155293 -67.014934 -12.441676 -43.661998 -113.947520 -40.499323 0.000003 -0.000002 -0.000000 19.855196 -10.521456 0.840569 -0.000003 -0.000007 -2.999990 -5.000314 -7.998731 0.000186 -7.315703 64.275126 9.037097 -49.663026 118.904332 51.206758 0.000000 0.000000 -0.000000 9.648880 12.564352 -0.461142 -0.000006 -0.000008 2.999989 -5.000190 7.998735 -0.000148 3.503459 -177.456757 4.010193 -179.999991 0.000005 -1.159993 174.263507 -3.098438 -0.521100 -0.000001 -0.000002 0.064241 68.792682 6.897019 2.135107 25.456952 -7.355615 0.000011 2.458427 177.751056 0.241450 -0.000005 -0.000004 -1.160380 -7.504043 1.489826 0.299604 -0.000003 0.000002 -0.106785 69.359116 -6.889755 -2.111185 25.456952 7.355612 0.000000 
55.814095 1.735907 96.724289 -5.445528 -1.373128 5.278064 -0.178759 0.078822 -0.265959 3.646725 0.162049 -0.528844 5.291771 0.155669 -0.530726 9.214343 11.601927 -3.015942 2.959487 -12.616090 -2.319561 -10.164352 -67.036299 -12.453043 -43.682331 -113.939426 -40.440041 0.000003 -0.000002 0.000000 19.764856 -10.481274 0.826236 -0.000006 -0.000007 -2.999990 -5.000313 -7.998733 0.000185 -7.299133 64.268030 9.017582 -49.656131 118.914235 51.139088 -0.000000 -0.000001 0.000000 9.570934 12.516306 -0.447855 -0.000006 -0.000008 2.999990 -5.000191 7.998735 -0.000148 3.497666 -177.456743 4.006976 -179.999991 0.000005 -1.159993 174.266061 -3.094468 -0.521560 -0.000001 -0.000002 0.064460 68.792661 6.896985 2.134900 25.456955 -7.355616 0.000010 2.451395 177.750059 0.237097 -0.000005 -0.000004 -1.160380 -7.507399 1.494792 0.299872 -0.000003 0.000002 -0.106642 69.358399 -6.889828 -2.111143 25.456952 7.355613 -0.000000 
55.798096 1.735317 96.724098 -5.438575 -1.373343 5.272322 -0.180198 0.078822 -0.266550 3.643535 0.161306 -0.531079 5.288589 0.154910 -0.532959 9.197870 11.600475 -3.012896 2.944474 -12.611061 -2.320200 -10.174230 -67.059931 -12.465475 -43.705749 -113.927337 -40.382052 0.000002 -0.000002 0.000000 19.678770 -10.439988 0.812069 -0.000006 -0.000006 -2.999989 -5.000307 -7.998734 0.000185 -7.284239 64.260728 8.999957 -49.647470 118.921926 51.069051 0.000002 -0.000000 -0.000000 9.498187 12.467044 -0.434929 -0.000005 -0.000008 2.999989 -5.000190 7.998735 -0.000147 3.486065 -177.455719 4.002072 -179.999991 0.000005 -1.159993 174.257660 -3.088456 -0.522425 -0.000001 -0.000002 0.064980 68.798440 6.896914 2.134427 25.456955 -7.355614 0.000011 2.447363 177.749048 0.232312 -0.000004 -0.000004 -1.160379 -7.505067 1.500114 0.299932 -0.000003 0.000002 -0.106304 69.354847 -6.889979 -2.111190 25.456952 7.355613 -0.000000 
